<svg width="13" height="12" viewBox="0 0 13 12" fill="none" xmlns="http://www.w3.org/2000/svg">
<path d="M4.12181e-09 3.65721L6.29555 6.93144C6.35869 6.96428 6.42882 6.98142 6.5 6.98142C6.57118 6.98142 6.6413 6.96428 6.70445 6.93144L13 3.6578V9.3453C13 9.83584 12.8124 10.3078 12.4755 10.6643C12.1386 11.0209 11.678 11.235 11.1883 11.2628L11.0795 11.2658H1.92045C1.42992 11.2658 0.957965 11.0781 0.601409 10.7412C0.244853 10.4043 0.0307265 9.94378 0.00295462 9.45403L4.12181e-09 9.3453V3.65721ZM1.92045 0.629395H11.0795C11.5701 0.629362 12.042 0.81704 12.3986 1.15393C12.7551 1.49082 12.9693 1.95137 12.997 2.44112L13 2.54985V2.65858L6.5 6.03858L4.12181e-09 2.65858V2.54985C-3.2114e-05 2.05931 0.187646 1.58736 0.524533 1.2308C0.861421 0.874248 1.32198 0.660121 1.81173 0.632349L1.92045 0.629395Z" fill="#094AEB"/>
</svg>
