<svg width="20" height="19" viewBox="0 0 20 19" fill="none" xmlns="http://www.w3.org/2000/svg">
<path fill-rule="evenodd" clip-rule="evenodd" d="M9.4 2.03557C9.618 2.24957 9.82 2.47857 10 2.71557C10.5856 1.94548 11.342 1.3219 12.2097 0.893972C13.0774 0.46604 14.0326 0.245445 15 0.249568C16.926 0.249568 18.226 1.07457 19.012 2.16557C19.76 3.20557 20 4.42257 20 5.24957C20 9.17357 17.494 12.4226 15.187 14.6016C13.8742 15.8334 12.4406 16.93 10.908 17.8746C10.7797 17.953 10.6504 18.0297 10.52 18.1046L10.496 18.1176L10.489 18.1216L10.486 18.1236L10 17.2496C9.514 18.1236 9.513 18.1226 9.513 18.1226H9.511L9.504 18.1176L9.48 18.1046C9.34928 18.0303 9.21993 17.9536 9.092 17.8746C7.55979 16.9299 6.12656 15.8334 4.814 14.6016C2.505 12.4216 0 9.17357 0 5.24957C0 4.42257 0.24 3.20557 0.988 2.16557C1.774 1.07457 3.074 0.249568 5 0.249568C6.896 0.249568 8.39 1.04457 9.4 2.03557ZM10 17.2496L10.486 18.1236C10.3374 18.2062 10.1701 18.2496 10 18.2496C9.82992 18.2496 9.66265 18.2062 9.514 18.1236L10 17.2496Z" fill="#094AEB"/>
</svg>
