<svg width="22" height="23" viewBox="0 0 22 23" fill="none" xmlns="http://www.w3.org/2000/svg">
<path fill-rule="evenodd" clip-rule="evenodd" d="M6.465 0.520102C7.638 0.466102 8.012 0.454102 11 0.454102C13.988 0.454102 14.362 0.467102 15.534 0.520102C16.706 0.573102 17.506 0.760102 18.206 1.0311C18.939 1.3081 19.604 1.7411 20.154 2.3011C20.714 2.8501 21.146 3.5141 21.422 4.2481C21.694 4.9481 21.88 5.7481 21.934 6.9181C21.988 8.0931 22 8.4671 22 11.4541C22 14.4421 21.987 14.8161 21.934 15.9891C21.881 17.1591 21.694 17.9591 21.422 18.6591C21.146 19.3932 20.7133 20.0583 20.154 20.6081C19.604 21.1681 18.939 21.6001 18.206 21.8761C17.506 22.1481 16.706 22.3341 15.536 22.3881C14.362 22.4421 13.988 22.4541 11 22.4541C8.012 22.4541 7.638 22.4411 6.465 22.3881C5.295 22.3351 4.495 22.1481 3.795 21.8761C3.06092 21.6001 2.39582 21.1674 1.846 20.6081C1.28638 20.0588 0.853315 19.394 0.577 18.6601C0.306 17.9601 0.12 17.1601 0.066 15.9901C0.012 14.8151 0 14.4411 0 11.4541C0 8.4661 0.013 8.0921 0.066 6.9201C0.119 5.7481 0.306 4.9481 0.577 4.2481C0.853723 3.51418 1.28712 2.84941 1.847 2.3001C2.39604 1.7406 3.06047 1.30754 3.794 1.0311C4.494 0.760102 5.295 0.574102 6.465 0.520102ZM15.445 2.5001C14.285 2.4471 13.937 2.4361 11 2.4361C8.063 2.4361 7.715 2.4471 6.555 2.5001C5.482 2.5491 4.9 2.7281 4.512 2.8791C3.999 3.0791 3.632 3.3161 3.247 3.7011C2.88205 4.05615 2.60118 4.48838 2.425 4.9661C2.274 5.3541 2.095 5.9361 2.046 7.0091C1.993 8.1691 1.982 8.5171 1.982 11.4541C1.982 14.3911 1.993 14.7391 2.046 15.8991C2.095 16.9721 2.274 17.5541 2.425 17.9421C2.601 18.4191 2.882 18.8521 3.247 19.2071C3.602 19.5721 4.035 19.8531 4.512 20.0291C4.9 20.1801 5.482 20.3591 6.555 20.4081C7.715 20.4611 8.062 20.4721 11 20.4721C13.938 20.4721 14.285 20.4611 15.445 20.4081C16.518 20.3591 17.1 20.1801 17.488 20.0291C18.001 19.8291 18.368 19.5921 18.753 19.2071C19.118 18.8521 19.399 18.4191 19.575 17.9421C19.726 17.5541 19.905 16.9721 19.954 15.8991C20.007 14.7391 20.018 14.3911 20.018 11.4541C20.018 8.5171 20.007 8.1691 19.954 7.0091C19.905 5.9361 19.726 5.3541 19.575 4.9661C19.375 4.4531 19.138 4.0861 18.753 3.7011C18.3979 3.33617 17.9657 3.05531 17.488 2.8791C17.1 2.7281 16.518 2.5491 15.445 2.5001ZM9.595 14.8451C10.3797 15.1717 11.2534 15.2158 12.0669 14.9698C12.8805 14.7238 13.5834 14.203 14.0556 13.4963C14.5278 12.7897 14.7401 11.941 14.656 11.0952C14.572 10.2494 14.197 9.45907 13.595 8.8591C13.2112 8.47558 12.7472 8.18191 12.2363 7.99925C11.7255 7.81658 11.1804 7.74946 10.6405 7.80272C10.1006 7.85597 9.57915 8.02828 9.1138 8.30723C8.64845 8.58619 8.25074 8.96485 7.9493 9.41595C7.64786 9.86706 7.45019 10.3794 7.37052 10.9161C7.29084 11.4527 7.33115 12.0004 7.48854 12.5196C7.64593 13.0388 7.91648 13.5167 8.28072 13.9188C8.64496 14.3209 9.09382 14.6373 9.595 14.8451ZM7.002 7.4561C7.52702 6.93108 8.15032 6.5146 8.8363 6.23046C9.52228 5.94632 10.2575 5.80008 11 5.80008C11.7425 5.80008 12.4777 5.94632 13.1637 6.23046C13.8497 6.5146 14.473 6.93108 14.998 7.4561C15.523 7.98113 15.9395 8.60442 16.2236 9.2904C16.5078 9.97638 16.654 10.7116 16.654 11.4541C16.654 12.1966 16.5078 12.9318 16.2236 13.6178C15.9395 14.3038 15.523 14.9271 14.998 15.4521C13.9377 16.5124 12.4995 17.1081 11 17.1081C9.50046 17.1081 8.06234 16.5124 7.002 15.4521C5.94166 14.3918 5.34597 12.9536 5.34597 11.4541C5.34597 9.95456 5.94166 8.51644 7.002 7.4561ZM17.908 6.6421C18.0381 6.51937 18.1423 6.37178 18.2143 6.20808C18.2863 6.04437 18.3248 5.86787 18.3274 5.68903C18.33 5.51019 18.2967 5.33265 18.2295 5.16691C18.1622 5.00117 18.0624 4.85061 17.936 4.72414C17.8095 4.59767 17.6589 4.49786 17.4932 4.43062C17.3275 4.36338 17.1499 4.33008 16.9711 4.33268C16.7922 4.33529 16.6157 4.37376 16.452 4.4458C16.2883 4.51784 16.1407 4.622 16.018 4.7521C15.7793 5.00513 15.6486 5.34122 15.6537 5.68903C15.6588 6.03684 15.7992 6.36898 16.0452 6.61494C16.2911 6.86091 16.6233 7.00133 16.9711 7.0064C17.3189 7.01147 17.655 6.88079 17.908 6.6421Z" fill="#094AEB"/>
</svg>
