<svg width="19" height="19" viewBox="0 0 19 19" fill="none" xmlns="http://www.w3.org/2000/svg">
<path d="M2.188 4.8301C3.3964 4.8301 4.376 3.8505 4.376 2.6421C4.376 1.4337 3.3964 0.454102 2.188 0.454102C0.979601 0.454102 0 1.4337 0 2.6421C0 3.8505 0.979601 4.8301 2.188 4.8301Z" fill="#094AEB"/>
<path d="M6.442 6.4881V18.6271H10.211V12.6241C10.211 11.0401 10.509 9.5061 12.473 9.5061C14.41 9.5061 14.434 11.3171 14.434 12.7241V18.6281H18.205V11.9711C18.205 8.7011 17.501 6.1881 13.679 6.1881C11.844 6.1881 10.614 7.1951 10.111 8.1481H10.06V6.4881H6.442ZM0.3 6.4881H4.075V18.6271H0.3V6.4881Z" fill="#094AEB"/>
</svg>
