<svg width="13" height="14" viewBox="0 0 13 14" fill="none" xmlns="http://www.w3.org/2000/svg">
<path d="M12.7611 10.4488L9.79477 7.75175C9.65455 7.6243 9.47029 7.55633 9.28089 7.56219C9.0915 7.56804 8.91179 7.64726 8.77971 7.78313L7.03345 9.57901C6.61312 9.49873 5.76809 9.2353 4.89825 8.36765C4.0284 7.49707 3.76497 6.64985 3.68689 6.23244L5.4813 4.48546C5.61734 4.35347 5.69668 4.17373 5.70253 3.98428C5.70839 3.79483 5.6403 3.61053 5.51268 3.4704L2.81631 0.504753C2.68864 0.364175 2.5112 0.278904 2.32166 0.267049C2.13213 0.255195 1.94545 0.317692 1.80125 0.441266L0.217728 1.7993C0.0915648 1.92592 0.0162622 2.09444 0.00610466 2.2729C-0.00484136 2.45533 -0.213545 6.77682 3.1374 10.1292C6.06071 13.0518 9.72252 13.2656 10.731 13.2656C10.8784 13.2656 10.9689 13.2612 10.993 13.2598C11.1714 13.2498 11.3399 13.1742 11.4659 13.0474L12.8232 11.4632C12.9472 11.3194 13.0102 11.1329 12.9986 10.9434C12.987 10.7539 12.9018 10.5764 12.7611 10.4488Z" fill="#094AEB"/>
</svg>
