<svg width="18" height="21" viewBox="0 0 18 21" fill="none" xmlns="http://www.w3.org/2000/svg">
<path fill-rule="evenodd" clip-rule="evenodd" d="M9 0.749512L18 4.12451V8.81751C18 12.9355 16.38 15.9305 14.465 17.8915C13.6159 18.7677 12.6317 19.5021 11.55 20.0665C10.637 20.5345 9.724 20.8175 9 20.8175C8.276 20.8175 7.363 20.5345 6.45 20.0675C5.36822 19.5027 4.38405 18.7681 3.535 17.8915C1.619 15.9305 0 12.9355 0 8.81751V4.12451L9 0.749512ZM12.707 9.52451C12.8892 9.33591 12.99 9.08331 12.9877 8.82111C12.9854 8.55891 12.8802 8.3081 12.6948 8.12269C12.5094 7.93728 12.2586 7.83212 11.9964 7.82984C11.7342 7.82756 11.4816 7.92835 11.293 8.11051L8 11.4035L6.707 10.1105C6.5184 9.92835 6.2658 9.82756 6.0036 9.82984C5.7414 9.83212 5.49059 9.93728 5.30518 10.1227C5.11977 10.3081 5.0146 10.5589 5.01233 10.8211C5.01005 11.0833 5.11084 11.3359 5.293 11.5245L7.293 13.5245C7.48053 13.712 7.73484 13.8173 8 13.8173C8.26516 13.8173 8.51947 13.712 8.707 13.5245L12.707 9.52451Z" fill="#094AEB"/>
</svg>
