<svg width="20" height="19" viewBox="0 0 20 19" fill="none" xmlns="http://www.w3.org/2000/svg">
<path fill-rule="evenodd" clip-rule="evenodd" d="M10.4572 0.666612C10.3746 0.499146 10.2469 0.358127 10.0884 0.259516C9.92982 0.160906 9.74686 0.108643 9.56016 0.108643C9.37347 0.108643 9.1905 0.160906 9.03197 0.259516C8.87344 0.358127 8.74569 0.499146 8.66316 0.666612L6.25116 5.55461L0.85716 6.33861C0.672378 6.36528 0.498751 6.44314 0.355934 6.56339C0.213117 6.68363 0.106813 6.84146 0.0490562 7.01899C-0.0087009 7.19653 -0.0156045 7.38669 0.029127 7.56795C0.0738584 7.74921 0.168438 7.91433 0.302161 8.04461L4.20616 11.8496L3.28416 17.2216C3.25265 17.4055 3.27322 17.5946 3.34354 17.7674C3.41386 17.9402 3.53113 18.0899 3.68209 18.1996C3.83305 18.3092 4.01167 18.3745 4.19777 18.3879C4.38387 18.4013 4.57001 18.3624 4.73516 18.2756L9.56016 15.7396L14.3852 18.2756C14.5503 18.3622 14.7363 18.4008 14.9222 18.3873C15.1082 18.3737 15.2866 18.3084 15.4374 18.1988C15.5882 18.0892 15.7053 17.9396 15.7756 17.7669C15.8459 17.5943 15.8665 17.4054 15.8352 17.2216L14.9152 11.8496L18.8172 8.04461C18.9509 7.91439 19.0455 7.74936 19.0902 7.56817C19.135 7.38699 19.1282 7.19688 19.0706 7.01937C19.0129 6.84186 18.9067 6.68402 18.7641 6.56372C18.6214 6.44341 18.4479 6.36543 18.2632 6.33861L12.8692 5.55461L10.4572 0.666612Z" fill="#094AEB"/>
</svg>
